<mxfile host="app.diagrams.net" modified="2022-08-14T06:22:11.625Z" agent="5.0 (Windows NT 10.0; Win64; x64) AppleWebKit/537.36 (KHTML, like Gecko) Chrome/104.0.5112.81 Safari/537.36 Edg/104.0.1293.54" etag="woxciq05ZBex_UiFS3C1" version="20.2.3" type="github">
  <diagram id="pxF-jKxXXbTpe3DI_HJF" name="第 1 页">
    <mxGraphModel dx="1730" dy="2134" grid="1" gridSize="10" guides="1" tooltips="1" connect="1" arrows="1" fold="1" page="1" pageScale="1" pageWidth="827" pageHeight="1169" math="0" shadow="0">
      <root>
        <mxCell id="0" />
        <mxCell id="1" parent="0" />
        <mxCell id="RH6bYwl-bpcb5SBCjSm3-1" value="&lt;font style=&quot;font-size: 18px;&quot;&gt;MAGIC&lt;/font&gt;" style="rounded=0;whiteSpace=wrap;html=1;fillColor=#F19C99;" parent="1" vertex="1">
          <mxGeometry x="120" y="120" width="120" height="80" as="geometry" />
        </mxCell>
        <mxCell id="RH6bYwl-bpcb5SBCjSm3-2" value="&lt;font style=&quot;font-size: 18px;&quot;&gt;VERSION&lt;/font&gt;" style="rounded=0;whiteSpace=wrap;html=1;fillColor=#F19C99;" parent="1" vertex="1">
          <mxGeometry x="240" y="120" width="120" height="80" as="geometry" />
        </mxCell>
        <mxCell id="RH6bYwl-bpcb5SBCjSm3-3" value="" style="rounded=0;whiteSpace=wrap;html=1;" parent="1" vertex="1">
          <mxGeometry x="120" y="-120" width="120" height="80" as="geometry" />
        </mxCell>
        <mxCell id="RH6bYwl-bpcb5SBCjSm3-5" value="&lt;font style=&quot;font-size: 18px;&quot;&gt;VM_CONFIGURATION&lt;/font&gt;" style="rounded=0;whiteSpace=wrap;html=1;fillColor=#FFB366;" parent="1" vertex="1">
          <mxGeometry x="120" y="200" width="240" height="80" as="geometry" />
        </mxCell>
        <mxCell id="RH6bYwl-bpcb5SBCjSm3-6" value="&lt;font style=&quot;font-size: 18px;&quot;&gt;VM_CONFIGURATION&lt;/font&gt;" style="rounded=0;whiteSpace=wrap;html=1;" parent="1" vertex="1">
          <mxGeometry x="120" y="-240" width="240" height="80" as="geometry" />
        </mxCell>
        <mxCell id="RH6bYwl-bpcb5SBCjSm3-7" value="type 0x07(1)" style="rounded=0;whiteSpace=wrap;html=1;fontSize=18;fillColor=#CCCCCC;" parent="1" vertex="1">
          <mxGeometry x="550" y="-210" width="120" height="80" as="geometry" />
        </mxCell>
        <mxCell id="RH6bYwl-bpcb5SBCjSm3-8" value="QEMU_VM_CONFIGURATION = 0x07" style="text;html=1;strokeColor=none;fillColor=none;align=center;verticalAlign=middle;whiteSpace=wrap;rounded=0;fontSize=18;" parent="1" vertex="1">
          <mxGeometry x="455" y="-240" width="330" height="30" as="geometry" />
        </mxCell>
        <mxCell id="RH6bYwl-bpcb5SBCjSm3-9" value="machine type len(4)" style="rounded=0;whiteSpace=wrap;html=1;fontSize=18;fillColor=#CCCCCC;" parent="1" vertex="1">
          <mxGeometry x="670" y="-210" width="240" height="80" as="geometry" />
        </mxCell>
        <mxCell id="RH6bYwl-bpcb5SBCjSm3-10" value="machine type(len)" style="rounded=0;whiteSpace=wrap;html=1;fontSize=18;fillColor=#CCCCCC;" parent="1" vertex="1">
          <mxGeometry x="910" y="-210" width="360" height="80" as="geometry" />
        </mxCell>
        <mxCell id="RH6bYwl-bpcb5SBCjSm3-12" value="" style="endArrow=classic;html=1;rounded=0;fontSize=18;entryX=0;entryY=0.5;entryDx=0;entryDy=0;dashed=1;" parent="1" target="RH6bYwl-bpcb5SBCjSm3-7" edge="1">
          <mxGeometry width="50" height="50" relative="1" as="geometry">
            <mxPoint x="360" y="240" as="sourcePoint" />
            <mxPoint x="410" y="190" as="targetPoint" />
          </mxGeometry>
        </mxCell>
        <mxCell id="UqULxAHt8uUY80FvIUKQ-1" value="&lt;font style=&quot;font-size: 18px;&quot;&gt;Format:&lt;br&gt;Content(Size/Byte)&lt;br&gt;&lt;/font&gt;" style="rounded=0;whiteSpace=wrap;html=1;" vertex="1" parent="1">
          <mxGeometry x="120" width="240" height="80" as="geometry" />
        </mxCell>
        <mxCell id="UqULxAHt8uUY80FvIUKQ-2" value="&lt;font style=&quot;font-size: 18px;&quot;&gt;VM_SETUP&lt;/font&gt;" style="rounded=0;whiteSpace=wrap;html=1;fillColor=#FFB366;" vertex="1" parent="1">
          <mxGeometry x="120" y="280" width="240" height="80" as="geometry" />
        </mxCell>
        <mxCell id="UqULxAHt8uUY80FvIUKQ-3" value="type 0x01(1)" style="rounded=0;whiteSpace=wrap;html=1;fontSize=18;fillColor=#CCCCCC;" vertex="1" parent="1">
          <mxGeometry x="550" y="-50" width="120" height="80" as="geometry" />
        </mxCell>
        <mxCell id="UqULxAHt8uUY80FvIUKQ-4" value="QEMU_VM_SECTION_START = 0x01" style="text;html=1;strokeColor=none;fillColor=none;align=center;verticalAlign=middle;whiteSpace=wrap;rounded=0;fontSize=18;" vertex="1" parent="1">
          <mxGeometry x="450" y="-80" width="340" height="30" as="geometry" />
        </mxCell>
        <mxCell id="UqULxAHt8uUY80FvIUKQ-5" value="" style="endArrow=classic;html=1;rounded=0;fontSize=18;entryX=0;entryY=0.5;entryDx=0;entryDy=0;dashed=1;exitX=1;exitY=0.5;exitDx=0;exitDy=0;" edge="1" parent="1" source="UqULxAHt8uUY80FvIUKQ-2" target="UqULxAHt8uUY80FvIUKQ-3">
          <mxGeometry width="50" height="50" relative="1" as="geometry">
            <mxPoint x="370" y="250" as="sourcePoint" />
            <mxPoint x="570" y="90" as="targetPoint" />
          </mxGeometry>
        </mxCell>
        <mxCell id="UqULxAHt8uUY80FvIUKQ-6" value="section id(4)" style="rounded=0;whiteSpace=wrap;html=1;fontSize=18;fillColor=#CCCCCC;" vertex="1" parent="1">
          <mxGeometry x="670" y="-50" width="240" height="80" as="geometry" />
        </mxCell>
        <mxCell id="UqULxAHt8uUY80FvIUKQ-7" value="idstr len(1)" style="rounded=0;whiteSpace=wrap;html=1;fontSize=18;fillColor=#CCCCCC;" vertex="1" parent="1">
          <mxGeometry x="910" y="-50" width="120" height="80" as="geometry" />
        </mxCell>
        <mxCell id="UqULxAHt8uUY80FvIUKQ-8" value="idstr(idstr len)" style="rounded=0;whiteSpace=wrap;html=1;fontSize=18;fillColor=#CCCCCC;" vertex="1" parent="1">
          <mxGeometry x="1030" y="-50" width="360" height="80" as="geometry" />
        </mxCell>
        <mxCell id="UqULxAHt8uUY80FvIUKQ-9" value="instance id(4)" style="rounded=0;whiteSpace=wrap;html=1;fontSize=18;fillColor=#CCCCCC;" vertex="1" parent="1">
          <mxGeometry x="1390" y="-50" width="240" height="80" as="geometry" />
        </mxCell>
        <mxCell id="UqULxAHt8uUY80FvIUKQ-10" value="version id(4)" style="rounded=0;whiteSpace=wrap;html=1;fontSize=18;fillColor=#CCCCCC;" vertex="1" parent="1">
          <mxGeometry x="1630" y="-50" width="240" height="80" as="geometry" />
        </mxCell>
        <mxCell id="UqULxAHt8uUY80FvIUKQ-11" value="ram total len(8)" style="rounded=0;whiteSpace=wrap;html=1;fontSize=18;fillColor=#CCCCCC;" vertex="1" parent="1">
          <mxGeometry x="550" y="30" width="360" height="80" as="geometry" />
        </mxCell>
        <mxCell id="UqULxAHt8uUY80FvIUKQ-12" value="&lt;b&gt;&lt;font style=&quot;font-size: 24px;&quot; color=&quot;#7ea6e0&quot;&gt;Ram Meta&lt;/font&gt;&lt;/b&gt;" style="text;html=1;strokeColor=none;fillColor=none;align=center;verticalAlign=middle;whiteSpace=wrap;rounded=0;fontSize=18;" vertex="1" parent="1">
          <mxGeometry x="400" y="100" width="130" height="30" as="geometry" />
        </mxCell>
        <mxCell id="UqULxAHt8uUY80FvIUKQ-15" value="ram block 1&#39;s idstr len(1)" style="rounded=0;whiteSpace=wrap;html=1;fontSize=18;fillColor=#CCCCCC;" vertex="1" parent="1">
          <mxGeometry x="910" y="30" width="240" height="80" as="geometry" />
        </mxCell>
        <mxCell id="UqULxAHt8uUY80FvIUKQ-16" value="ram block 1&#39;s idstr(ram block 1&#39;s idstr len)" style="rounded=0;whiteSpace=wrap;html=1;fontSize=18;fillColor=#CCCCCC;" vertex="1" parent="1">
          <mxGeometry x="1150" y="30" width="360" height="80" as="geometry" />
        </mxCell>
        <mxCell id="UqULxAHt8uUY80FvIUKQ-17" value="ram block 1&#39;s len(8)" style="rounded=0;whiteSpace=wrap;html=1;fontSize=18;fillColor=#CCCCCC;" vertex="1" parent="1">
          <mxGeometry x="1510" y="30" width="240" height="80" as="geometry" />
        </mxCell>
        <mxCell id="UqULxAHt8uUY80FvIUKQ-18" value="ram block 1&#39;s page size(8)" style="rounded=0;whiteSpace=wrap;html=1;fontSize=18;fillColor=#F8CECC;dashed=1;" vertex="1" parent="1">
          <mxGeometry x="1750" y="30" width="240" height="80" as="geometry" />
        </mxCell>
        <mxCell id="UqULxAHt8uUY80FvIUKQ-19" value="&lt;font color=&quot;#ff0000&quot;&gt;Postcopy only!&lt;/font&gt;" style="text;html=1;strokeColor=none;fillColor=none;align=center;verticalAlign=middle;whiteSpace=wrap;rounded=0;fontSize=24;fontColor=#7EA6E0;" vertex="1" parent="1">
          <mxGeometry x="1820" y="170" width="170" height="30" as="geometry" />
        </mxCell>
        <mxCell id="UqULxAHt8uUY80FvIUKQ-20" value="" style="endArrow=classic;html=1;rounded=0;fontSize=24;fontColor=#FF0000;exitX=0.25;exitY=0;exitDx=0;exitDy=0;entryX=0.386;entryY=1;entryDx=0;entryDy=0;entryPerimeter=0;" edge="1" parent="1" source="UqULxAHt8uUY80FvIUKQ-19" target="UqULxAHt8uUY80FvIUKQ-18">
          <mxGeometry width="50" height="50" relative="1" as="geometry">
            <mxPoint x="1830" y="160" as="sourcePoint" />
            <mxPoint x="1930" y="30" as="targetPoint" />
          </mxGeometry>
        </mxCell>
        <mxCell id="UqULxAHt8uUY80FvIUKQ-21" value="ram block 2&#39;s idstr len(1)" style="rounded=0;whiteSpace=wrap;html=1;fontSize=18;fillColor=#CCCCCC;" vertex="1" parent="1">
          <mxGeometry x="550" y="110" width="240" height="80" as="geometry" />
        </mxCell>
        <mxCell id="UqULxAHt8uUY80FvIUKQ-22" value="&lt;font style=&quot;font-size: 36px;&quot; color=&quot;#000000&quot;&gt;......&lt;/font&gt;" style="text;html=1;strokeColor=none;fillColor=none;align=center;verticalAlign=middle;whiteSpace=wrap;rounded=0;fontSize=24;fontColor=#FF0000;" vertex="1" parent="1">
          <mxGeometry x="820" y="135" width="60" height="30" as="geometry" />
        </mxCell>
        <mxCell id="UqULxAHt8uUY80FvIUKQ-23" value="ram block &lt;i&gt;n&lt;/i&gt;&#39;s len(8)" style="rounded=0;whiteSpace=wrap;html=1;fontSize=18;fillColor=#CCCCCC;" vertex="1" parent="1">
          <mxGeometry x="910" y="110" width="240" height="80" as="geometry" />
        </mxCell>
        <mxCell id="UqULxAHt8uUY80FvIUKQ-24" value="ram block &lt;i&gt;n&lt;/i&gt;&#39;s page size(8)" style="rounded=0;whiteSpace=wrap;html=1;fontSize=18;fillColor=#F8CECC;dashed=1;" vertex="1" parent="1">
          <mxGeometry x="1150" y="110" width="240" height="80" as="geometry" />
        </mxCell>
        <mxCell id="UqULxAHt8uUY80FvIUKQ-25" value="RAM_SAVE_FLAG_EOS = 0x10(8)" style="rounded=0;whiteSpace=wrap;html=1;fontSize=18;fillColor=#CCCCCC;" vertex="1" parent="1">
          <mxGeometry x="1390" y="110" width="320" height="80" as="geometry" />
        </mxCell>
        <mxCell id="UqULxAHt8uUY80FvIUKQ-26" value="type 0x7e(1)" style="rounded=0;whiteSpace=wrap;html=1;fontSize=18;fillColor=#CCCCCC;" vertex="1" parent="1">
          <mxGeometry x="550" y="190" width="120" height="80" as="geometry" />
        </mxCell>
        <mxCell id="UqULxAHt8uUY80FvIUKQ-27" value="QEMU_VM_SECTION_FOOTER = 0x7e" style="text;html=1;strokeColor=none;fillColor=none;align=center;verticalAlign=middle;whiteSpace=wrap;rounded=0;fontSize=18;" vertex="1" parent="1">
          <mxGeometry x="450" y="270" width="340" height="30" as="geometry" />
        </mxCell>
        <mxCell id="UqULxAHt8uUY80FvIUKQ-28" value="section id(4)" style="rounded=0;whiteSpace=wrap;html=1;fontSize=18;fillColor=#CCCCCC;" vertex="1" parent="1">
          <mxGeometry x="670" y="190" width="240" height="80" as="geometry" />
        </mxCell>
      </root>
    </mxGraphModel>
  </diagram>
</mxfile>
